<svg xmlns="http://www.w3.org/2000/svg" fill-rule="evenodd" viewBox="0 0 512 286"><path fill="#CCC" d="m380 1 0-1c0 0 0 0-1 0l-1 0c0 0 0 0 0 1l-11 206 2 0 11-200 13 22h0c10 29 14 60 12 93l1 1 13 23 1 1c20 18 42 29 67 35l6 10 1 0 0 0L380 5l0-4V1zm121 199c6-1 9-2 11-4l-287 35h0c0 12 5 21 16 28 3 2 6 3 8 4 3-3 5-5 9-7h0c30-18 75-21 134-9l1 0c6 1 13 3 19 5 2 0 3 0 4-1 2-2 5-3 8-4v0c10-17 22-29 38-38 11-5 24-9 38-10zm-138 5L376 4c-19 73-50 142-91 206l78-4zm-74-162-1 0-1 0 0 1-11 174 2 0L290 44l0-1zm-15 171 12-170-61 175 49-5zM380 1l-4 73c14 29 19 72 15 131l55-7-70-124L380 1 274 214 380 1zm-30 42c1 1 2 2 1 3a3 3 0 0 1-3 1c-3-2-6-2-8-2-3 0-6 2-9 5-1 1-3 1-3 0-3-3-5-4-8-5-3 0-5 0-8 2-1 1-3 0-3-1-1-1 0-3 1-3 4-2 8-3 12-3 3 1 6 2 9 5 3-3 7-4 10-5 4-1 8 0 12 3zm-15-23c1 1 2 2 1 3a3 3 0 0 1-3 1c-3-2-5-2-8-2-3 1-6 3-9 6-1 1-3 1-4 0l0 0c-3-3-6-5-9-6-3-1-5 0-8 2-1 1-3 0-3-1s0-3 1-3c4-2 8-3 12-2 3 1 6 3 9 6 3-3 6-5 9-6 4-1 8 0 12 2z"/><path fill="#6C78AF" d="M7 232h18c5 0 9 2 12 5 2 3 3 7 2 13 0 2-1 4-2 6-1 2-2 4-4 5-2 2-4 3-6 4-2 1-5 1-9 1H11L9 278H0l7-46zm8 7-3 19h6c4 0 6-1 8-2 2-2 3-4 4-8 1-3 0-6-1-7-1-1-4-2-7-2h-6zm34-19h9l-2 12h8c5 0 9 1 11 3 2 2 3 5 2 9l-3 21h-9l3-20c0-2 0-4-1-5-1-1-2-1-5-1h-7l-4 26H42l7-46zm38 12h18c5 0 9 2 12 5 2 3 3 7 2 13 0 2-1 4-2 6-1 2-2 4-4 5-2 2-4 3-6 4-2 1-5 1-9 1h-8l-2 12h-9l7-46zm8 7-3 19h6c4 0 6-1 8-2 2-2 3-4 4-8 1-3 0-6-1-7-1-1-4-2-7-2h-6z"/><path fill="#F89C0E" d="M135 210h18l8 43 22-43H200l-9 56h-12l8-43-22 43h-13l-8-44-6 44H126l9-56zm86 47h9l5-32h11l-6 40c-1 5-3 9-6 12-3 3-7 4-13 4h-22l1-8h20c2 0 4 0 5-2 1-1 2-2 2-4l0-1h-10c-6 0-11-1-13-4-2-2-3-6-2-12l4-25h11l-4 24c0 3 0 5 0 6s3 1 6 1zm55-47h13l16 56H292l-3-13h-25l-7 13h-13l33-56zm4 11-12 21H286l-5-21zm66 45h-21c-6 0-11-2-14-6-3-4-4-9-3-15 0-3 1-5 2-7 1-2 3-4 4-6 2-2 5-4 7-5 3-1 6-1 10-1h10l2-15h11l-9 56zm-10-9 4-23h-7c-5 0-8 1-10 3-2 2-4 5-4 9-1 4 0 7 1 9 1 2 4 3 9 3h8zm26-32h43c6 0 10 1 13 4 2 2 3 6 2 11l-4 26h-11l4-24c0-3 0-5 0-6-1-1-3-1-6-1h-6l-5 32h-11l5-32h-13l-5 32h-11l7-41zm83-5h-12l2-10h12l-2 10zm-7 45h-12l7-41h12l-7 41zm16-41h21c6 0 11 1 13 3 2 2 3 6 2 11l-4 26h-11l4-25c0-3 0-5-1-6-1-1-3-1-6-1h-9l-5 32h-11l7-41zm0 0z"/></svg>