<svg xmlns="http://www.w3.org/2000/svg" viewBox="0 0 1041 1186"><style>.t{fill:#231f20}.b{fill:#306995}</style><g stroke-miterlimit="10"><path class="t" d="M111,1043c0,13-4,23-12,31-8,7-18,11-32,11H14l0,61-14,0v-144l72,0c12,0,22,4,29,11,7,7,10,18,10,31Zm-15,0c0-20-10-30-29-30H14v60h50c21,0,32-10,32-30Z"/><path class="t" d="M215,1099c0,15-4,27-12,36-9,10-22,14-39,14-8,0-15-1-21-3-6-2-12-6-16-11-8-9-12-21-12-36s4-27,12-36c9-10,21-15,38-15,17,0,30,5,39,14,8,9,12,21,12,36Zm-13,0c0-27-13-40-39-40-12,0-21,4-27,11-3,3-6,8-7,13-2,5-3,11-3,17,0,12,3,22,10,29,6,7,16,11,28,11,13,0,23-4,30-11,3-3,5-8,7-12,1-5,2-11,2-17Z"/><path class="t" d="M314,1120c0,19-15,29-44,29-9,0-16-1-22-2-6-1-11-4-15-7-3-2-5-5-7-9-2-4-3-9-3-14l13,0c0,8,2,13,7,17,5,4,14,6,27,6,20,0,31-6,31-18,0-7-3-12-10-15-1-1-10-2-25-4-15-2-24-4-28-6-8-4-12-11-12-21s4-17,11-22c4-2,8-4,13-5,5-1,11-2,18-2,28,0,42,11,42,31h-13c0-15-10-22-29-22-10,0-17,1-22,4-5,3-7,8-7,14,0,6,3,10,10,12,4,1,13,3,27,5,13,1,21,3,26,6,9,4,13,11,13,21Z"/><path class="t" d="M369,1146c-2,0-4,1-5,1-2,0-3,0-4,0-9,0-15-2-19-5-4-3-6-8-6-16v-65h-16v-10h16l0-31h12v31h22v10l-22,0v64c0,5,1,8,3,10,2,2,6,3,11,3,1,0,2,0,3,0,1,0,2-1,4-1l0,10Z"/><path class="t" d="M474,1143c0,29-16,43-48,43-17,0-29-3-36-8-6-5-10-12-11-23l13,0c1,8,4,13,8,16,5,4,14,6,26,6,13,0,22-3,28-9,6-6,8-14,8-25v-17c-8,12-21,18-39,18-16,0-28-4-36-13-4-4-7-9-9-15-2-6-3-13-3-20,0-15,4-27,12-35,8-9,21-13,37-13,11,0,20,2,27,7,2,2,6,6,12,12l0-16h12v91Zm-12-47c0-11-3-20-9-27-6-7-16-10-28-10s-21,3-28,10-10,16-10,28c0,25,13,38,39,38,6,0,11-1,15-3,4-2,8-4,12-8,6-7,10-16,10-28Z"/><path class="b" d="M629,1146l-18,0c-3-5-4-18-4-38,0-13-3-22-9-27-3-2-7-4-13-5-6-1-13-2-21-2h-57v72h-16v-164h91c8,0,15,1,21,3,6,2,11,5,15,10,6,8,9,17,9,29s-3,21-8,28c-5,7-13,11-22,13v1c10,0,17,3,21,10,4,6,6,16,6,30,0,4,0,8,0,12,0,4,1,8,1,12,1,9,2,14,3,16Zm-19-118c0-22-12-32-35-32h-68v66h64c26,0,39-11,39-34Z"/><path class="b" d="M770,1146h-126v-164l125,0v13h-108v60h101l0,13h-101l0,65,109,0v13Z"/><path class="b" d="M912,1102c0,32-22,48-65,48-26,0-45-5-56-16-10-9-15-23-15-41h17c0,30,18,45,54,45,17,0,30-3,37-9,7-5,10-14,10-25s-4-19-13-24c-5-2-17-6-37-9-24-4-40-9-48-13-10-7-16-18-16-33,0-15,4-26,13-33,10-8,26-12,49-12,42,0,63,17,63,50h-18c0-25-16-38-47-38-16,0-27,3-34,8-7,5-10,13-10,24s4,19,13,23c5,3,19,6,41,11,22,4,36,8,44,14,10,6,15,17,15,33Z"/><path class="b" d="M1041,995h-61v151l-16,0,0-151h-62l0-13,139,0v13Z"/><path fill="none" stroke="#000" stroke-linecap="round" stroke-width="15" d="M222,845h597M222,695h597M222,545h597M222,396h597M222,244h597"/><path fill="#fff" stroke="#000" stroke-width="45" d="M516,810c-14-10-45-38-73-71-36-43-56-81-59-113-2-23,4-42,18-57,26-29,55-43,87-43,2,0,4,0,7,0l-128-132,9-12c99-121,107-148,107-170,0-50-31-88-54-116-4-5-8-9-11-14c-2-3-4-5-6-8-7-7-14-16-13-27,0-5,2-11,9-17l1,0,1,0c5-3,10-5,15-5,13,0,21,10,29,20,2,2,3,4,5,6,22,24,169,204,176,212l10,12-11,11c-1,1-81,78-81,156,0,92,108,179,110,180l13,11-32,39-12-7c-18-11-43-17-67-17-29,0-52,9-65,24-5,6-7,12-6,20,3,30,42,66,57,78l13,10-10,13-21,29-14-10Z"/><path fill="#306995" stroke="#306995" stroke-width="23" d="M523,801c-14-10-44-37-71-70-24-28-53-70-57-107-2-19,3-35,15-48,24-27,50-39,79-39,13,0,26,2,40,7l-146-151,3-4c93-114,109-148,109-177,0-54-33-94-57-124-4-5-7-9-11-13c-2-3-5-6-7-9-5-6-11-12-10-19,0-3,2-7,5-9,3-2,6-3,9-3,8,0,13,7,20,16,2,2,3,4,5,7,21,22,169,204,175,212l3,4-4,4c-1,1-85,82-85,164,0,28,10,73,57,131,28,35,57,58,57,58l4,4-19,23-4-2c-20-12-47-18-73-18-32,0-59,10-74,28-7,8-10,18-9,29,2,17,13,37,32,58,15,16,29,28,29,28l4,3-17,24-5-3Z"/><path fill="none" stroke="#fff" stroke-width="13" d="M520,805c-14-10-44-38-72-71-36-42-55-79-58-110-2-21,4-39,17-53,25-28,52-41,83-41,7,0,14,1,22,2l-136-140,6-8c92-113,108-146,108-174,0-52-32-91-56-120-4-5-7-9-11-13c-2-3-4-6-7-8-6-7-12-14-12-23,0-3,2-9,7-13,4-3,8-4,12-4,11,0,17,8,25,18,2,2,3,4,5,7,21,23,169,204,175,212l7,8-8,7c-1,1-83,80-83,160,0,95,111,183,112,184l9,7-25,31-8-5c-19-11-45-17-70-17-30,0-56,9-70,26-6,7-9,15-8,25,3,32,43,70,59,82l9,7-6,9-18,24-9-7Z"/></g></svg>
